<?xml version="1.0" encoding="UTF-8"?>
<svg id="Camada_2" data-name="Camada 2" xmlns="http://www.w3.org/2000/svg" viewBox="0 0 317.15 259.97">
  <defs>
    <style>
      .cls-1 {
        fill: #141414;
      }
    </style>
  </defs>
  <g id="Camada_1-2" data-name="Camada 1">
    <g>
      <path class="cls-1" d="M116.63,164.95c-4.64-14.96,0-26.57,0-26.57h0c-7.61-6.99-9.27-18.36-4-27.24l51.87-87.31c.39-.67,1.36-.67,1.74.01l40.43,73.19c1.14,2.07,1.1,4.58-.1,6.61l-25.9,43.56c-.36.61-1.02.98-1.72.98h-35.15c-1.25,0-2.02-1.36-1.38-2.43l38.65-64.19c.8-1.33-.16-3.03-1.71-3.03h-20.85c-.7,0-1.35.37-1.71.97l-32.66,54.4c-2.89,4.81-4.75,10.16-5.49,15.72h0c-1.18,8.91,4.12,17.41,12.63,20.28h0c4.04,1.36,8.29,2.06,12.55,2.06h47.88s34.54-57.79,34.54-57.79c4.96-8.29,5.07-18.61.3-27.02L177.99,1.56c-.53-.96-1.54-1.56-2.63-1.56h-21.84c-.36,0-.69.19-.87.5l-60.44,104.35c-6.67,11.51-6.85,25.67-.48,37.36,0,0,9.81,20.97,24.9,22.74Z"/>
      <g>
        <path class="cls-1" d="M14.62,251.32l-3.25,8.65H0l18.27-47.83h11.21l18.25,47.83h-11.34l-3.26-8.65H14.62ZM24.68,228.92c-.31-.84-.6-1.74-.81-2.53-.22.79-.51,1.69-.82,2.53l-5.03,13.38h11.71l-5.04-13.38Z"/>
        <path class="cls-1" d="M71.15,212.14c20.61,0,24.77,9.84,24.77,23.92s-4.17,23.92-24.77,23.92h-15.92v-47.83h15.92ZM71.15,250.94c10.86,0,13.5-4,13.5-14.89s-2.64-14.89-13.5-14.89h-4.64v29.78h4.64Z"/>
        <path class="cls-1" d="M130.07,259.97h-11.32l-18.25-47.83h11.39l11.66,31.23c.19.5.58,1.67.86,2.84.29-1.17.68-2.34.86-2.84l11.59-31.23h11.41l-18.2,47.83Z"/>
        <path class="cls-1" d="M188.12,259.97h-32.38v-47.83h11.27v38.81h21.11v9.02Z"/>
        <path class="cls-1" d="M196.87,259.97v-47.83h11.27v47.83h-11.27Z"/>
        <path class="cls-1" d="M250.69,259.97l-18.09-26.15c-1.02-1.45-1.69-2.51-2.12-3.37v29.51h-10.59v-47.83h10.94l18.09,26.1c1.02,1.44,1.68,2.52,2.12,3.41v-29.51h10.59v47.83h-10.94Z"/>
        <path class="cls-1" d="M284.67,245.29v14.68h-11.27v-47.83h11.27v18.88c.89-1.27,1.8-2.38,2.57-3.16l16-15.72h13.87l-19.01,19.42,19.05,28.41h-12.86l-13.44-21-6.18,6.32Z"/>
      </g>
    </g>
  </g>
</svg>