<?xml version="1.0" encoding="UTF-8"?>
<svg id="Camada_2" data-name="Camada 2" xmlns="http://www.w3.org/2000/svg" viewBox="0 0 142.99 171.95">
  <defs>
    <style>
      .cls-1 {
        fill: #f4f4f4;
      }
    </style>
  </defs>
  <g id="Camada_1-2" data-name="Camada 1">
    <path class="cls-1" d="M29.56,164.95c-4.64-14.96,0-26.57,0-26.57h0c-7.61-6.99-9.27-18.36-4-27.24L77.43,23.83c.39-.67,1.36-.67,1.74.01l40.43,73.19c1.14,2.07,1.1,4.58-.1,6.61l-25.9,43.56c-.36.61-1.02.98-1.72.98h-35.15c-1.25,0-2.02-1.36-1.38-2.43l38.65-64.19c.8-1.33-.16-3.03-1.71-3.03h-20.85c-.7,0-1.35.37-1.71.97l-32.66,54.4c-2.89,4.81-4.75,10.16-5.49,15.72h0c-1.18,8.91,4.12,17.41,12.63,20.28h0c4.04,1.36,8.29,2.06,12.55,2.06h47.88s34.54-57.79,34.54-57.79c4.96-8.29,5.07-18.61.3-27.02L90.92,1.56c-.53-.96-1.54-1.56-2.63-1.56h-21.84c-.36,0-.69.19-.87.5L5.13,104.85c-6.67,11.51-6.85,25.67-.48,37.36,0,0,9.81,20.97,24.9,22.74Z"/>
  </g>
</svg>